<svg width="68" height="68" viewBox="0 0 68 68" fill="none" xmlns="http://www.w3.org/2000/svg">
<path d="M61.3756 30.2543C60.5936 30.277 59.9787 30.9315 60.0014 31.7135C60.0326 32.7165 60.0496 33.7365 60.0496 34.782C60.0496 36.8135 59.9844 38.8847 59.8569 40.9558C50.4247 41.8512 43.4887 43.8373 43.1941 43.9223C42.7294 44.0583 42.3667 44.421 42.2279 44.8857C42.1429 45.1775 40.1624 52.0172 39.3124 62.1237C37.2837 62.2653 35.2806 62.339 33.3482 62.339C22.2501 62.339 12.3731 59.9845 9.61907 59.2677C8.91357 56.5816 6.64974 46.9795 6.64974 34.7848C6.64974 22.7092 8.91924 13.0135 9.62191 10.3048C12.3787 9.58799 22.2586 7.23349 33.3482 7.23349L34.6969 7.24482C35.5412 7.13999 36.1221 6.62999 36.1362 5.85082C36.1476 5.06882 35.5242 4.42565 34.7422 4.41149L33.3511 4.40015C19.9324 4.39449 8.55374 7.64432 8.07491 7.78315C7.61024 7.91915 7.24757 8.28182 7.10874 8.74649C6.97557 9.20549 3.81641 20.1393 3.81641 34.7792C3.81641 49.5465 6.97557 60.3642 7.10874 60.8175C7.24474 61.2793 7.61024 61.642 8.07207 61.7752C8.54807 61.914 19.9012 65.1638 33.3454 65.1638C35.7367 65.1638 38.2272 65.0562 40.7461 64.8493C41.0861 64.821 41.4062 64.6708 41.6442 64.4243L62.2029 43.2423C62.4352 43.0043 62.5741 42.6898 62.5996 42.3583C62.7837 39.8225 62.8801 37.2725 62.8801 34.7763C62.8801 33.7053 62.8631 32.6513 62.8319 31.6228C62.8092 30.8408 62.1377 30.2912 61.3727 30.2487L61.3756 30.2543ZM44.7439 46.4355C46.5317 45.968 51.3201 44.8148 57.4627 44.064L42.4092 59.5737C43.1317 53.0513 44.2792 48.2233 44.7439 46.4355Z" fill="black"/>
<path d="M64.1693 11.4552C64.1495 11.3135 63.6735 7.92203 61.353 5.59869C59.0183 3.33203 55.5985 2.86453 55.454 2.84469C55.1282 2.80219 54.7938 2.87303 54.5162 3.05153C54.2583 3.21303 48.0958 7.15419 35.3572 19.7314C21.9357 32.9829 18.3997 38.182 18.2523 38.3974C18.1248 38.5872 18.0455 38.8082 18.02 39.0349L17.0822 47.8125C17.0368 48.2375 17.187 48.6597 17.4873 48.9629C17.7537 49.232 18.1163 49.3794 18.4903 49.3794C18.5385 49.3794 18.5895 49.3794 18.6377 49.3709L27.5287 48.4415C27.7525 48.4189 27.9678 48.3424 28.1577 48.2177C28.3758 48.076 33.6402 44.5825 47.0588 31.331C59.8003 18.7539 63.7897 12.665 63.954 12.4129C64.1353 12.1295 64.2118 11.7895 64.1693 11.4552ZM45.0698 29.3137C33.5637 40.6754 28.0925 44.7894 26.8742 45.662L20.0883 46.3704L20.7995 39.7035C21.692 38.4852 25.8627 33.0849 37.3462 21.7459C47.9258 11.2994 53.958 6.87086 55.5815 5.74603C56.423 5.93586 58.1627 6.44586 59.364 7.61319C60.5455 8.79753 61.0668 10.4919 61.2595 11.3277C60.1035 12.9512 55.6183 18.9012 45.0698 29.3137Z" fill="black"/>
</svg>
