<svg width="68" height="68" viewBox="0 0 68 68" fill="none" xmlns="http://www.w3.org/2000/svg">
<g clip-path="url(#clip0_406_244)">
<path d="M34 0C15.2518 0 0 15.2518 0 34C0 52.7482 15.2518 68 34 68C52.7482 68 68 52.7482 68 34C68 15.2518 52.7482 0 34 0ZM34 65.1667C16.8158 65.1667 2.83333 51.1842 2.83333 34C2.83333 16.8158 16.8158 2.83333 34 2.83333C51.1842 2.83333 65.1667 16.8158 65.1667 34C65.1667 51.1842 51.1842 65.1667 34 65.1667ZM49.5833 22.6667H42.5V19.8333C42.5 16.7082 39.9585 14.1667 36.8333 14.1667H31.1667C28.0415 14.1667 25.5 16.7082 25.5 19.8333V22.6667H18.4167C17.6347 22.6667 17 23.3013 17 24.0833C17 24.8653 17.6347 25.5 18.4167 25.5H19.8333V45.3333C19.8333 50.0197 23.647 53.8333 28.3333 53.8333H39.6667C44.353 53.8333 48.1667 50.0197 48.1667 45.3333V25.5H49.5833C50.3653 25.5 51 24.8653 51 24.0833C51 23.3013 50.3653 22.6667 49.5833 22.6667ZM28.3333 19.8333C28.3333 18.2722 29.6027 17 31.1667 17H36.8333C38.3973 17 39.6667 18.2722 39.6667 19.8333V22.6667H28.3333V19.8333ZM45.3333 45.3333C45.3333 48.4585 42.7918 51 39.6667 51H28.3333C25.2082 51 22.6667 48.4585 22.6667 45.3333V25.5H45.3333V45.3333Z" fill="black"/>
</g>
<defs>
<clipPath id="clip0_406_244">
<rect width="68" height="68" fill="white"/>
</clipPath>
</defs>
</svg>
