<svg width="100" height="72" viewBox="0 0 100 72" fill="none" xmlns="http://www.w3.org/2000/svg">
<path d="M61.7625 50.1874C63.0398 52.7786 65.0224 54.9568 67.4824 56.4715C69.9424 57.9862 72.7799 58.7759 75.6687 58.7499C81.5062 58.7499 85.2375 55.8312 85.2375 51.7937C85.2375 46.9624 81.4062 45.2499 74.975 42.4187L71.45 40.9062C61.2813 36.5749 54.525 31.1437 54.525 19.6562C54.5435 17.043 55.1056 14.4622 56.1755 12.078C57.2453 9.69374 58.7995 7.55818 60.7393 5.80707C62.6791 4.05596 64.9621 2.72762 67.443 1.90649C69.9239 1.08536 72.5485 0.789399 75.15 1.03744C79.2387 0.742809 83.3235 1.66146 86.8923 3.67827C90.4612 5.69508 93.3555 8.72034 95.2125 12.3749L84.2375 19.4187C83.5172 17.6109 82.2639 16.0651 80.644 14.9867C79.0242 13.9082 77.1145 13.3483 75.1687 13.3812C74.3212 13.2961 73.4652 13.3884 72.6552 13.6522C71.8452 13.916 71.0991 14.3455 70.4641 14.9134C69.8292 15.4813 69.3195 16.1752 68.9673 16.9508C68.6152 17.7265 68.4284 18.5669 68.4187 19.4187C68.4187 23.6499 71.0375 25.3624 77.0875 27.9812L80.6125 29.4874C92.5875 34.6249 99.3625 39.8624 99.3625 51.6312C99.3625 64.3249 89.3937 71.2749 76.0062 71.2749C70.7904 71.6075 65.5898 70.4237 61.0317 67.8663C56.4737 65.309 52.7531 61.4873 50.3188 56.8624L61.7625 50.1874ZM11.9687 51.4374C14.1812 55.3624 16.2 58.6874 21.0375 58.6874C25.6687 58.6874 28.5937 56.8749 28.5937 49.8249V1.87494H42.6875V49.9999C43.0198 52.8535 42.7057 55.7452 41.7684 58.4608C40.8311 61.1764 39.2946 63.6462 37.2728 65.6872C35.2511 67.7281 32.7959 69.2879 30.0893 70.2509C27.3827 71.2138 24.494 71.5553 21.6375 71.2499C17.2252 71.4906 12.8434 70.3893 9.06917 68.0911C5.29495 65.7928 2.30524 62.4054 0.493744 58.3749L11.9687 51.4374Z" fill="black"/>
</svg>
