<svg width="150" height="150" viewBox="0 0 150 150" fill="none" xmlns="http://www.w3.org/2000/svg">
<path d="M74.1188 -1.62845e-05C68 0.0312337 62.1563 0.549984 57.0188 1.46248C41.875 4.13748 39.125 9.73748 39.125 20.0625V33.7H74.9125V38.25H39.125H25.6938C15.2938 38.25 6.18751 44.5 3.33751 56.3937C0.0500075 70.025 -0.0937425 78.5312 3.33751 92.7625C5.88126 103.356 11.9563 110.906 22.3563 110.906H34.6625V94.5562C34.6625 82.7437 44.8813 72.325 57.0188 72.325H92.7625C102.713 72.325 110.656 64.1312 110.656 54.1375V20.0625C110.656 10.3625 102.475 3.08123 92.7625 1.46248C86.6125 0.437484 80.2313 -0.0250163 74.1188 -1.62845e-05ZM54.7625 10.9687C58.4563 10.9687 61.475 14.0375 61.475 17.8062C61.475 21.5625 58.4563 24.6062 54.7625 24.6062C51.05 24.6062 48.05 21.5687 48.05 17.8062C48.05 14.0375 51.0563 10.9687 54.7625 10.9687Z" fill="black"/>
<path d="M115.112 38.25V54.1438C115.112 66.4625 104.669 76.8313 92.7562 76.8313H57.0187C47.225 76.8313 39.125 85.2125 39.125 95.0188V129.094C39.125 138.794 47.5562 144.494 57.0187 147.281C68.3438 150.613 79.2062 151.213 92.7625 147.281C101.769 144.675 110.656 139.425 110.656 129.094V115.456H74.9125V110.913H110.656H128.55C138.95 110.913 142.825 103.656 146.444 92.7688C150.181 81.5563 150.019 70.7813 146.444 56.4C143.875 46.0438 138.963 38.2562 128.55 38.2562L115.112 38.25ZM95.0125 124.544C98.725 124.544 101.725 127.581 101.725 131.344C101.725 135.119 98.7187 138.181 95.0125 138.181C91.3187 138.181 88.3 135.113 88.3 131.344C88.3 127.581 91.3187 124.544 95.0125 124.544Z" fill="black"/>
</svg>
